# xmcd
#
# Track frame offsets:
# 150
# 22745
# 46287
# 65687
# 87877
# 114425
# 136420
# 157005
# 177772
# 202777
# 226335
# 248375
# 270780
# 294717
#
# Disc length: 4258 seconds
#
#
# Revision: 7
# Processed by: cddbd v1.5.2PL0 Copyright (c) Steve Scherf et al.
# Submitted via: FreeRIP 2.941 
#
DISCID=ad10a00e
DTITLE=Vários - House Classics Paradoxx
DYEAR=1997
DGENRE=Dance
TTITLE0=Front 242 - Headhunter
TTITLE1=Lee Marrow - Movin'
TTITLE2=Erasure - A Little Respect
TTITLE3=Capella - Get Out Of My Case
TTITLE4=Friends Of Carlotta - Fingerfoc
TTITLE5=Koto - Dragon's Legend
TTITLE6=Jaydee - Plastic Dreams
TTITLE7=Rofo - Rofo's Theme
TTITLE8=Rosso Barroco - Do Do Do Don't Stop
TTITLE9=Zinno - What's Your Name
TTITLE10=T-99 - Too Nice To Be Real
TTITLE11=Bass X - Is This Love
TTITLE12=Co-Ro Featuring Taleesa - Because The Night
TTITLE13=Sonia Davis - Bette Davis Eyes
EXTD=YEAR: 1997
EXTT0=
EXTT1=
EXTT2=
EXTT3=
EXTT4=
EXTT5=
EXTT6=
EXTT7=
EXTT8=
EXTT9=
EXTT10=
EXTT11=
EXTT12=
EXTT13=
PLAYORDER=
